<?xml version="1.0" standalone="no"?>
<!DOCTYPE svg PUBLIC "-//W3C//DTD SVG 20010904//EN"
 "http://www.w3.org/TR/2001/REC-SVG-20010904/DTD/svg10.dtd">
<svg version="1.0" xmlns="http://www.w3.org/2000/svg"
 width="1046.000000pt" height="1046.000000pt" viewBox="0 0 1046.000000 1046.000000"
 preserveAspectRatio="xMidYMid meet">
<metadata>
Created by potrace 1.11, written by Peter Selinger 2001-2013
</metadata>
<g transform="translate(0.000000,1046.000000) scale(0.100000,-0.100000)"
fill="#000000" stroke="none">
<path d="M8775 10418 c-428 -347 -6186 -5222 -6213 -5259 -7 -10 -244 -496
-527 -1079 -367 -755 -515 -1071 -515 -1095 0 -47 8 -64 39 -80 49 -25 1892
-755 1945 -770 148 -42 354 -40 505 7 95 29 233 103 315 168 69 55 81 60 420
179 191 67 349 121 350 119 2 -2 58 -164 125 -362 105 -309 121 -364 116 -400
-16 -101 32 -330 93 -451 67 -133 171 -254 285 -333 124 -84 1803 -1052 1826
-1052 65 0 48 -31 601 1107 l523 1078 143 4090 c80 2302 138 4099 133 4111
-23 61 -103 72 -164 22z m-309 -540 c-13 -24 -572 -1006 -1241 -2183 -669
-1177 -1219 -2142 -1221 -2145 -5 -5 -3047 -319 -3052 -315 -3 2 4976 4226
5378 4562 80 67 149 122 153 122 4 1 -3 -18 -17 -41z m145 -3697 c-69 -1988
-130 -3614 -134 -3613 -5 0 -380 586 -834 1302 l-825 1301 938 2272 c1054
2555 974 2361 977 2356 2 -2 -53 -1630 -122 -3618z m-1410 1012 c-10 -21 -490
-1010 -1066 -2198 -576 -1188 -1052 -2164 -1057 -2170 -9 -10 -470 -176 -475
-171 -2 2 360 633 805 1402 444 769 1032 1798 1306 2287 441 784 554 982 487
850z m-143 -909 c-193 -467 -638 -1567 -989 -2444 -549 -1375 -639 -1592 -647
-1570 -43 110 -152 448 -150 462 3 18 2131 4408 2135 4404 2 -1 -155 -385
-349 -852z m-1363 -973 c-6 -4 -500 -329 -1100 -721 -600 -392 -1120 -733
-1156 -757 l-65 -44 -45 20 c-64 30 -142 28 -208 -5 -170 -85 -170 -333 0
-418 93 -46 196 -32 267 37 43 41 63 79 77 146 l11 55 1134 743 c624 408 1136
741 1138 738 2 -2 -319 -572 -714 -1267 -711 -1252 -719 -1264 -793 -1338
-132 -131 -301 -200 -491 -201 -52 0 -120 5 -150 11 -65 14 -1850 720 -1850
732 0 11 940 1950 951 1962 6 7 2866 309 2984 315 11 1 15 -3 10 -8z m1960
-1825 c439 -693 798 -1264 798 -1270 0 -18 -947 -1966 -956 -1966 -18 0 -1656
956 -1709 997 -97 76 -178 194 -224 324 -21 59 -27 99 -31 195 -3 69 -1 142 5
171 6 27 253 657 548 1399 295 742 540 1360 545 1373 5 13 11 22 14 20 2 -2
58 -626 125 -1386 l121 -1382 -40 -40 c-146 -146 -40 -400 167 -401 177 -1
292 187 212 345 -24 46 -38 59 -133 120 -13 8 -35 237 -131 1345 -64 734 -119
1358 -122 1385 -4 33 -3 47 4 40 5 -5 369 -577 807 -1269z"/>
</g>
</svg>
